<svg xmlns="http://www.w3.org/2000/svg" width="22.968" height="16.15" viewBox="0 0 22.968 16.15"><path d="M11.484,16.15c-.072,0-7.2-.006-8.974-.483A2.826,2.826,0,0,1,.48,13.656,30.465,30.465,0,0,1,0,8.091,30.452,30.452,0,0,1,.48,2.527,2.886,2.886,0,0,1,2.51.483C4.282.006,11.412,0,11.484,0s7.2.006,8.973.483a2.886,2.886,0,0,1,2.031,2.044,30.452,30.452,0,0,1,.48,5.564,30.465,30.465,0,0,1-.48,5.565,2.826,2.826,0,0,1-2.031,2.011C18.686,16.144,11.556,16.15,11.484,16.15ZM9.135,4.676v6.83l6-3.415Z" transform="translate(0 0)" fill="#ab9969"/></svg>