<?xml version="1.0" standalone="no"?>
<!DOCTYPE svg PUBLIC "-//W3C//DTD SVG 20010904//EN"
 "http://www.w3.org/TR/2001/REC-SVG-20010904/DTD/svg10.dtd">
<svg version="1.0" xmlns="http://www.w3.org/2000/svg"
 width="700.000000pt" height="700.000000pt" viewBox="0 0 700.000000 700.000000"
 preserveAspectRatio="xMidYMid meet">
<metadata>
Created by potrace 1.14, written by Peter Selinger 2001-2017
</metadata>
<g transform="translate(0.000000,700.000000) scale(0.100000,-0.100000)"
fill="#000000" stroke="none">
<path d="M2 4578 l3 -702 98 -1 c55 0 102 4 107 10 4 5 7 178 7 384 l0 375 29
23 c16 13 60 33 98 45 231 71 407 -90 400 -367 -4 -172 -80 -301 -203 -343
-43 -15 -124 -15 -175 -1 -53 15 -65 -5 -28 -45 149 -158 409 -128 531 62 111
173 125 427 34 606 -108 214 -383 299 -617 192 -31 -14 -59 -25 -63 -23 -4 1
-7 111 -6 245 l1 242 -109 0 -109 0 2 -702z"/>
<path d="M6785 5262 c-49 -30 -74 -75 -71 -132 2 -58 27 -97 77 -122 156 -78
288 142 147 245 -37 28 -115 32 -153 9z"/>
<path d="M2968 4864 c-2 -1 -19 -6 -38 -9 -79 -14 -198 -102 -185 -137 5 -14
11 -14 48 -1 23 8 69 17 103 20 104 9 162 -34 199 -147 17 -49 19 -93 19 -382
0 -181 3 -328 6 -329 23 -5 203 -3 206 2 2 4 4 161 4 350 1 366 -2 396 -52
493 -41 80 -136 136 -243 141 -35 1 -65 1 -67 -1z"/>
<path d="M5150 4862 c-104 -15 -219 -77 -282 -152 l-36 -44 39 -28 39 -28 49
35 c152 109 396 101 456 -15 18 -36 26 -137 11 -149 -6 -5 -69 -18 -141 -30
-71 -12 -143 -24 -159 -27 -16 -3 -57 -14 -90 -25 -154 -51 -235 -134 -251
-254 -15 -107 40 -207 140 -256 132 -65 283 -40 382 63 47 49 32 63 -40 38
-75 -26 -139 -26 -188 2 -46 26 -65 52 -74 102 -15 79 21 143 103 182 33 15
165 45 262 59 24 4 48 9 52 11 10 7 10 21 12 -240 l1 -230 108 0 107 -1 0 350
c0 221 -4 365 -11 390 -33 122 -150 213 -310 240 -50 9 -142 12 -179 7z"/>
<path d="M6454 4855 c-91 -21 -204 -103 -185 -134 8 -12 18 -12 70 3 114 32
191 14 244 -56 46 -60 51 -100 53 -448 1 -179 3 -329 3 -335 1 -11 203 -14
211 -3 7 8 4 654 -3 700 -22 143 -94 240 -202 269 -53 15 -137 16 -191 4z"/>
<path d="M1907 4838 c-9 -5 -12 -125 -12 -475 0 -257 3 -473 7 -478 7 -11 193
-13 204 -2 4 4 7 220 7 479 l0 473 -97 5 c-54 3 -103 2 -109 -2z"/>
<path d="M4393 4842 c-48 -2 -73 -7 -74 -15 0 -7 -1 -241 -2 -522 -2 -481 -3
-513 -22 -563 -24 -65 -74 -126 -125 -152 -91 -47 -225 -42 -333 11 l-58 28
-19 -41 c-22 -50 -19 -59 28 -92 79 -54 148 -78 245 -83 232 -13 424 108 483
306 15 49 17 118 18 586 l1 530 -35 5 c-19 3 -68 4 -107 2z"/>
<path d="M1209 4523 c-1 -175 -1 -329 0 -343 3 -49 24 -126 48 -173 52 -104
134 -152 258 -151 100 0 149 14 213 61 92 69 93 106 1 79 -148 -44 -247 2
-286 132 -14 48 -16 108 -16 385 l-1 327 -108 0 -108 0 -1 -317z"/>
<path d="M2429 4828 c-1 -16 0 -917 0 -938 1 -12 19 -15 103 -14 57 1 105 2
108 3 3 1 5 216 5 479 l0 477 -107 3 c-83 2 -108 0 -109 -10z"/>
<path d="M3630 4491 c1 -305 3 -356 19 -407 34 -113 74 -164 159 -205 48 -23
158 -31 228 -17 70 14 184 95 184 132 0 19 -1 19 -70 1 -117 -31 -202 -12
-248 55 -48 71 -53 111 -52 463 l0 327 -110 0 -110 0 0 -349z"/>
<path d="M5950 4361 c0 -374 3 -480 13 -483 6 -2 55 -3 107 -3 l95 1 2 482 2
482 -110 0 -109 0 0 -479z"/>
<path d="M2560 3308 c-1 -121 -1 -825 0 -1016 l0 -132 1328 2 1327 3 53 22
c113 46 192 148 208 268 8 58 11 504 4 506 -24 7 -193 2 -197 -5 -3 -4 -7
-110 -8 -235 -1 -149 -6 -236 -14 -256 -22 -54 -61 -101 -104 -126 l-42 -24
-1174 0 -1175 0 0 548 0 547 -103 0 -103 0 0 -102z"/>
<path d="M6015 3396 c-95 -42 -104 -175 -16 -224 46 -26 81 -28 126 -6 36 17
76 81 70 112 -2 9 -4 26 -4 36 -1 11 -18 35 -39 55 -43 41 -86 49 -137 27z"/>
<path d="M1610 3082 c-49 -25 -75 -65 -74 -116 0 -76 51 -128 127 -130 76 -1
131 53 131 129 0 97 -99 160 -184 117z"/>
<path d="M2059 2966 c-1 -1 -2 -161 -4 -356 -1 -341 -5 -396 -30 -455 -49
-117 -152 -176 -299 -172 -97 3 -159 29 -217 91 -71 75 -81 123 -83 389 -2
221 -3 234 -25 280 -48 99 -157 130 -266 76 -44 -21 -47 -24 -25 -27 53 -6 68
-13 86 -39 17 -25 20 -56 25 -293 6 -288 10 -309 72 -408 165 -260 603 -300
831 -76 61 61 110 152 126 234 6 29 10 211 10 404 l0 352 -100 0 c-55 0 -101
0 -101 0z"/>
<path d="M5968 2966 c0 -1 -2 -100 -3 -221 -2 -121 -8 -238 -14 -260 -32 -116
-116 -175 -251 -175 -71 0 -114 13 -173 49 -25 17 -48 27 -51 23 -8 -13 29
-86 63 -125 18 -20 58 -48 89 -63 48 -23 72 -28 152 -30 211 -5 344 93 379
281 6 32 11 163 11 290 l0 231 -100 0 c-55 1 -101 0 -102 0z"/>
<path d="M6648 2726 c-3 -228 -5 -243 -27 -285 -52 -99 -102 -126 -231 -125
-98 0 -129 9 -198 55 l-33 21 5 -24 c6 -35 44 -100 74 -127 84 -75 242 -101
370 -62 118 36 192 107 228 221 15 46 18 97 19 303 0 136 -2 251 -5 255 -3 5
-48 8 -101 9 l-97 0 -4 -241z"/>
<path d="M5152 1965 c-60 -26 -90 -114 -59 -175 17 -34 74 -70 109 -70 80 0
146 74 133 148 -14 84 -102 130 -183 97z"/>
<path d="M5487 1957 c-82 -47 -83 -167 -1 -217 42 -26 93 -25 135 3 60 41 77
113 39 174 -36 59 -110 76 -173 40z"/>
<path d="M6663 1965 c-18 -8 -42 -29 -53 -47 -68 -112 46 -240 163 -183 94 46
94 184 1 228 -42 20 -68 21 -111 2z"/>
</g>
</svg>
