<svg xmlns="http://www.w3.org/2000/svg" width="123.363" height="62.766" viewBox="0 0 123.363 62.766"><path d="M0,2.558A2.558,2.558,0,1,1,2.556,5.117,2.558,2.558,0,0,1,0,2.558Z" transform="translate(118.248)" fill="#ab9969"/><g transform="translate(0 0)"><path d="M6.608,7.389V17.423h3.827V6.946C10.435,2.55,8.823,0,4.672,0A5.878,5.878,0,0,0,0,2.329l.2.507c4.217-1.609,6.409-.183,6.409,4.553Z" transform="translate(110.366 7.325)" fill="#fff"/><path d="M0,16.994V0H3.824v16.99Z" transform="translate(104.87 7.753)" fill="#fff"/><path d="M15.934,17.42H12.108V7.39a6.983,6.983,0,0,0-.887-3.9A2.987,2.987,0,0,0,8.592,2.205,8.362,8.362,0,0,0,5.7,2.84l-.2-.507A5.875,5.875,0,0,1,10.172,0,5.223,5.223,0,0,1,14.61,1.826a8.2,8.2,0,0,1,1.324,5.121V17.419Zm-12.108,0H0V.429H3.827V17.419Z" transform="translate(42.776 7.325)" fill="#fff"/><path d="M5.763,17.419a5.223,5.223,0,0,1-4.438-1.826A8.2,8.2,0,0,1,0,10.472V0H3.827V10.03a6.981,6.981,0,0,0,.887,3.9,2.987,2.987,0,0,0,2.628,1.282,8.362,8.362,0,0,0,2.895-.634l.2.508A5.877,5.877,0,0,1,5.763,17.419Zm10.172-.428H12.108V0h3.827V16.989Z" transform="translate(21.302 7.753)" fill="#fff"/><path d="M7.324,25.239c-1.984,0-4.5-1.09-5.387-2.333l.632-1.585A7.74,7.74,0,0,0,7.124,22.63c3.026,0,4.982-2.214,4.983-5.639V0h3.827V16.99a7.711,7.711,0,0,1-2.808,6.484A9.518,9.518,0,0,1,7.324,25.239ZM5.764,17.42a5.224,5.224,0,0,1-4.439-1.826A8.2,8.2,0,0,1,0,10.472V0H3.827V10.03a6.982,6.982,0,0,0,.887,3.9,2.987,2.987,0,0,0,2.628,1.283,8.361,8.361,0,0,0,2.894-.634l.2.507A5.875,5.875,0,0,1,5.764,17.42Z" transform="translate(63.988 7.753)" fill="#fff"/><path d="M0,13.362c0,1.894,1.575,4.488,5.17,4.488a5.878,5.878,0,0,0,4.676-2.334l-.2-.507c-4.164,2.019-5.816-.3-5.816-1.978,0-1.42.937-2.7,3.926-3.229l3.762-.665v8.284h3.827V5.917C15.346,2.029,11.815,0,7.823,0A7.985,7.985,0,0,0,.947,3.481l1.345,1.05a7.412,7.412,0,0,1,5.2-2.046c1.979,0,4.025.85,4.025,2.918V6.827L6.47,7.718C2.173,8.477,0,10.457,0,13.362Z" transform="translate(84.252 7.325)" fill="#fff"/><path d="M8.492,7.326A9.112,9.112,0,0,0,3.827,8.863V0H0V24.746H3.827V11.173A6.23,6.23,0,0,1,7.991,9.724c3.165,0,5.155,2.681,5.155,6.527,0,5.01-3.229,7.693-7.447,6.084l-.2.507a5.881,5.881,0,0,0,4.676,2.333c4.277,0,6.8-4.222,6.8-8.925,0-5.068-3.083-8.925-8.481-8.925Z" fill="#fff"/><path d="M99.089,29.774a2.281,2.281,0,1,1,2.281-2.281A2.283,2.283,0,0,1,99.089,29.774Zm-20.516,0a2.281,2.281,0,1,1,2.281-2.281A2.284,2.284,0,0,1,78.573,29.774Zm-6.083,0a2.281,2.281,0,1,1,2.282-2.281A2.283,2.283,0,0,1,72.49,29.774ZM11.4,27.834a9.368,9.368,0,0,1-6.8-2.551,8.3,8.3,0,0,1-2.4-5.942V13.819a3.851,3.851,0,0,0-.563-2.565,1.265,1.265,0,0,0-.933-.35,2.679,2.679,0,0,0-.632.085L0,10.778a4.263,4.263,0,0,1,2.368-.884A3.172,3.172,0,0,1,5.049,11.06a4.7,4.7,0,0,1,.793,2.892v5.486c0,3.507,2.18,5.774,5.555,5.774,3.356,0,5.524-2.266,5.524-5.774V7.818h3.636V19.341a8.319,8.319,0,0,1-2.38,5.942A9.32,9.32,0,0,1,11.4,27.834Zm83.539-5.811a6.748,6.748,0,0,1-3.455-.825,4.825,4.825,0,0,1-2.233-3.082l.188-.125a5.783,5.783,0,0,0,3.917,1.41c1.691,0,4.529-.631,4.529-4.857V7.818h3.637v7.436c0,2.468-.771,4.307-2.292,5.464A7.233,7.233,0,0,1,94.936,22.023Zm-12.082,0A6.75,6.75,0,0,1,79.4,21.2a4.822,4.822,0,0,1-2.232-3.082l.188-.125a5.78,5.78,0,0,0,3.917,1.41c1.692,0,4.53-.631,4.53-4.857V7.818h3.635v7.436c0,2.469-.771,4.307-2.292,5.464A7.232,7.232,0,0,1,82.855,22.023Zm-12.088,0H25.821V0h3.635V19.4H69.184c1.691,0,4.529-.631,4.529-4.857V7.818H77.35v7.436c0,2.468-.771,4.307-2.292,5.464A7.233,7.233,0,0,1,70.767,22.023ZM10.051,10.141a2.323,2.323,0,1,1,2.323-2.323A2.326,2.326,0,0,1,10.051,10.141ZM87.619,4.562A2.281,2.281,0,1,1,89.9,2.281,2.284,2.284,0,0,1,87.619,4.562Z" transform="translate(19.286 32.992)" fill="#fff"/></g></svg>