<svg xmlns="http://www.w3.org/2000/svg" width="16.295" height="16.299" viewBox="0 0 16.295 16.299">
  <path id="Icon_metro-link" data-name="Icon metro-link" d="M3.975,16.3a3.979,3.979,0,0,1-2.812-6.79l1.431-1.43a.847.847,0,0,1,1.2,1.2l-1.43,1.43a2.282,2.282,0,0,0,3.227,3.227l3.129-3.129a2.286,2.286,0,0,0,0-3.227.847.847,0,0,1,1.2-1.2,3.981,3.981,0,0,1,0,5.624L6.787,15.134A3.948,3.948,0,0,1,3.975,16.3Zm3-6.133a.842.842,0,0,1-.6-.248,3.981,3.981,0,0,1,0-5.624L9.508,1.165a3.977,3.977,0,0,1,5.624,5.624L13.7,8.22a.848.848,0,0,1-1.2-1.2l1.431-1.43a2.282,2.282,0,1,0-3.227-3.227L7.577,5.493a2.285,2.285,0,0,0,0,3.227.847.847,0,0,1-.6,1.446Z" transform="translate(0 0)" fill="#ab9969"/>
</svg>
