<svg xmlns="http://www.w3.org/2000/svg" width="16.464" height="16.5" viewBox="0 0 16.464 16.5">
  <path id="Icon_feather-phone" data-name="Icon feather-phone" d="M16.464,12.353v2.484a1.656,1.656,0,0,1-1.8,1.656,16.381,16.381,0,0,1-7.144-2.542A16.144,16.144,0,0,1,2.548,8.983,16.387,16.387,0,0,1,.007,1.8,1.656,1.656,0,0,1,1.654,0H4.137A1.656,1.656,0,0,1,5.793,1.424a10.632,10.632,0,0,0,.579,2.327A1.656,1.656,0,0,1,6,5.5L4.949,6.549a13.246,13.246,0,0,0,4.967,4.968l1.051-1.052a1.655,1.655,0,0,1,1.747-.373,10.628,10.628,0,0,0,2.326.58,1.656,1.656,0,0,1,1.424,1.681Z" transform="translate(0 0)" fill="#ab9969"/>
</svg>
