<svg xmlns="http://www.w3.org/2000/svg" width="42.211" height="23.583" viewBox="0 0 42.211 23.583">
  <g id="layer2" transform="translate(0 0)">
    <path id="path820" d="M17.185,23.583a.875.875,0,0,1-.85-.648.867.867,0,0,1,.086-.663l.316-.545.3-.522a.889.889,0,0,1,.769-.44.951.951,0,0,1,.446.114.817.817,0,0,1,.408.5.9.9,0,0,1-.089.7l-.615,1.066A.892.892,0,0,1,17.185,23.583Zm5.728-.072a.9.9,0,0,1-.446-.119L22.3,23.3c-.835-.478-1.495-.855-2.309-1.328a2.18,2.18,0,0,0-1.085-2.229,2.145,2.145,0,0,0-1.091-.294c-.058,0-.118,0-.178.006a2.173,2.173,0,0,0-1.1-1.782,2.234,2.234,0,0,0-1.1-.3c-.059,0-.117,0-.171.008a2.146,2.146,0,0,0-1.1-1.779,2.24,2.24,0,0,0-1.111-.3,2.2,2.2,0,0,0-1.817.961,2.173,2.173,0,0,0-.68-.6,2.241,2.241,0,0,0-1.113-.3,2.159,2.159,0,0,0-1.477.571l-1.95-1.452,5.129-8.825,4.572.636A16.667,16.667,0,0,0,14.5,8.392a10.721,10.721,0,0,0-.742,1.861,2.779,2.779,0,0,0-.062,1.7A1.544,1.544,0,0,0,15.2,13l.08,0a4,4,0,0,0,1.9-.644,12.2,12.2,0,0,0,3.192-2.838l5.591,3.2,6.335,3.629a.864.864,0,0,1,.411.527.874.874,0,0,1-.093.669.882.882,0,0,1-1.209.324l-.839-.482-.006,0c-2.52-1.448-5.126-2.945-7.331-4.2a.651.651,0,0,0-.977.418.619.619,0,0,0,.321.72c1.2.692,2.406,1.383,3.573,2.051q1.591.911,2.993,1.717a.866.866,0,0,1,.324,1.2.888.888,0,0,1-1.214.325L26.7,18.723l-.06-.035-.006,0c-1.311-.752-2.667-1.529-3.992-2.294a.755.755,0,0,0-.379-.11.662.662,0,0,0-.629.5.646.646,0,0,0,.342.747c.927.535,1.863,1.07,2.769,1.587l.012.007q.878.5,1.757,1a.871.871,0,0,1,.321,1.2.88.88,0,0,1-1.209.323c-.668-.386-1.366-.785-2.04-1.171-.6-.341-1.159-.663-1.7-.974a.72.72,0,0,0-.362-.1.663.663,0,0,0-.626.507.635.635,0,0,0,.329.739c.633.365,1.31.753,2.13,1.219a.874.874,0,0,1,.326,1.2A.89.89,0,0,1,22.913,23.511ZM14.2,22.58a.9.9,0,0,1-.449-.12.876.876,0,0,1-.415-.535.861.861,0,0,1,.091-.659l1.239-2.131a.883.883,0,0,1,.756-.442.967.967,0,0,1,.454.118.843.843,0,0,1,.408.514.874.874,0,0,1-.083.685l-.62,1.065-.62,1.065A.872.872,0,0,1,14.2,22.58Zm-2.994-1a.887.887,0,0,1-.442-.118.868.868,0,0,1-.324-1.2q.384-.661.769-1.322c.339-.582.723-1.242,1.089-1.876a.879.879,0,0,1,.758-.438.962.962,0,0,1,.451.116.843.843,0,0,1,.412.514.872.872,0,0,1-.086.686c-.43.736-.8,1.373-1.173,2.014L12.636,20l-.661,1.135A.879.879,0,0,1,11.209,21.576Zm-2.064-2.6a.89.89,0,0,1-.442-.117.867.867,0,0,1-.409-.528.876.876,0,0,1,.091-.67l.308-.536a.857.857,0,0,1,.748-.439.985.985,0,0,1,.464.121.831.831,0,0,1,.413.513.867.867,0,0,1-.09.681q-.157.266-.311.533A.883.883,0,0,1,9.145,18.976Zm23.878-3.727h0c-3.2-1.832-6.464-3.7-9.617-5.51L20.517,8.081a.665.665,0,0,0-.874.193,11.075,11.075,0,0,1-3.14,2.94,3.033,3.033,0,0,1-1.266.467h-.018c-.2,0-.235-.069-.273-.157l-.01-.023a2.038,2.038,0,0,1,.1-.9,9.694,9.694,0,0,1,.653-1.626,14.018,14.018,0,0,1,1.867-2.884A6.866,6.866,0,0,1,21.225,4.83a18.168,18.168,0,0,1,2.047-.111c.219,0,.443,0,.665.011A19.151,19.151,0,0,1,26.609,5a13.274,13.274,0,0,0,2.3.211,10.144,10.144,0,0,0,1.911-.173,4.915,4.915,0,0,0,.947-.247l4.3,7.442-3.043,3.018ZM3.792,15.122a.585.585,0,0,1-.291-.079L.284,13.2a.564.564,0,0,1-.265-.345.57.57,0,0,1,.06-.436l6.5-11.178a.571.571,0,0,1,.789-.212L10.58,2.874a.575.575,0,0,1,.266.348.566.566,0,0,1-.06.433L4.29,14.833A.579.579,0,0,1,3.792,15.122ZM38.348,13a.452.452,0,0,1-.4-.2L35.537,8.641l-.029-.05C34.371,6.634,33.2,4.61,32.037,2.622A.409.409,0,0,1,32,2.308a.62.62,0,0,1,.3-.369L35.519.1a.662.662,0,0,1,.33-.1.472.472,0,0,1,.4.206l5.915,10.174a.4.4,0,0,1,.031.307.629.629,0,0,1-.3.374l-3.215,1.843A.671.671,0,0,1,38.348,13Z" fill="#ab9969"/>
  </g>
</svg>
