<svg xmlns="http://www.w3.org/2000/svg" width="14.645" height="23.586" viewBox="0 0 14.645 23.586">
  <g id="Livello_1" data-name="Livello 1" transform="translate(0 0)">
    <path id="Path_16108" data-name="Path 16108" d="M8.166,17.483a3.067,3.067,0,0,1-.376-.021q-.142,0-.282,0a21.58,21.58,0,0,1-2.481-.181c-.272-.031-.551-.062-.825-.089a.554.554,0,0,1-.548-.472,16.221,16.221,0,0,0-2.095-4.717c-.168-.29-.342-.59-.509-.887A7.753,7.753,0,0,1,.168,5.646,6.988,6.988,0,0,1,3.219,1.223,7.112,7.112,0,0,1,7.111,0a7.423,7.423,0,0,1,3.641,1.019,7.02,7.02,0,0,1,3.892,6.389,6.554,6.554,0,0,1-.868,3.1c-.7,1.329-1.451,2.638-2.178,3.905a4.741,4.741,0,0,0-.683,2.032.833.833,0,0,1-.878.858c-.252.021-.5.052-.748.083A9.317,9.317,0,0,1,8.166,17.483ZM7.128,2.738A4,4,0,0,0,4.172,4.022,4.082,4.082,0,0,0,3.085,8.578,7.437,7.437,0,0,1,5.009,5.093,9.579,9.579,0,0,1,8.5,2.925,5.459,5.459,0,0,0,7.128,2.738Z" fill="#ab9969"/>
    <path id="Path_16109" data-name="Path 16109" d="M3.511.031a11.558,11.558,0,0,1,2.8.123c.95.18,1.117.375,1.122,1.336V2c0,1.64.058,1.514-1.3,1.944a2.447,2.447,0,0,0-.75.414,2.306,2.306,0,0,1-3.294-.032A2.187,2.187,0,0,0,.807,3.731c-.632-.036-.823-.374-.8-.949a15.741,15.741,0,0,0,0-1.594A.912.912,0,0,1,.863.144,3.631,3.631,0,0,1,1.5.031c.665-.009,1.339,0,2.011,0Z" transform="translate(3.594 18.556)" fill="#ab9969"/>
  </g>
</svg>
