<svg xmlns="http://www.w3.org/2000/svg" width="23.582" height="23.584" viewBox="0 0 23.582 23.584">
  <g id="layer1" transform="translate(0 0)">
    <path id="path940" d="M13.362,23.584H10.22a.786.786,0,0,1-.746-.537l-.8-2.4a9.732,9.732,0,0,1-.944-.39L5.472,21.389a.786.786,0,0,1-.907-.148L2.342,19.017A.786.786,0,0,1,2.2,18.11l1.131-2.263a9.43,9.43,0,0,1-.391-.939l-2.4-.8A.785.785,0,0,1,0,13.362V10.22a.785.785,0,0,1,.537-.746l2.391-.8a9.549,9.549,0,0,1,.392-.95L2.2,5.472a.786.786,0,0,1,.147-.907L4.565,2.342A.787.787,0,0,1,5.472,2.2L7.729,3.323a9.562,9.562,0,0,1,.946-.391l.8-2.394A.785.785,0,0,1,10.22,0h3.143a.785.785,0,0,1,.746.537l.8,2.389a9.611,9.611,0,0,1,.953.393L18.11,2.2a.787.787,0,0,1,.907.147l2.222,2.223a.785.785,0,0,1,.148.907L20.257,7.731a9.524,9.524,0,0,1,.392.944l2.4.8a.785.785,0,0,1,.537.746v3.143a.785.785,0,0,1-.537.746l-2.395.8a9.571,9.571,0,0,1-.391.947l1.128,2.256a.785.785,0,0,1-.148.907l-2.222,2.224a.786.786,0,0,1-.907.148l-2.264-1.133a9.48,9.48,0,0,1-.938.389l-.8,2.4A.786.786,0,0,1,13.362,23.584Zm-1.575-17.3a5.5,5.5,0,1,0,5.506,5.505A5.508,5.508,0,0,0,11.787,6.286Z" fill="#ab9969"/>
  </g>
</svg>
